<svg id="Layer_1" data-name="Layer 1" xmlns="http://www.w3.org/2000/svg" viewBox="0 0 750 500"><path d="M210.52,239.5c0-30,.47-60-.17-90-.41-18.83,13.55-35.32,35.07-35.53,10.67-.1,21.34-.17,32,0,4.26,0,6-1.63,5.94-5.93-.15-7.16-.06-14.33.09-21.5.5-23.84,20.26-39.45,43.65-35.12,26,4.83,52.21,8.93,78.27,13.67,21.12,3.84,42.2,7.93,63.19,12.42a37.87,37.87,0,0,1,20.43,12c10,11.3,6.65,28.3-6.88,37a37.82,37.82,0,0,1-20.86,6c-44.5.1-89,.05-133.49.08-4.86,0-8.94-1.19-10.91-6.18a7.55,7.55,0,0,1,2.58-9.39,16.58,16.58,0,0,1,8.71-2.69c14.66-.31,29.33-.23,44-.24,28.5,0,57,.1,85.5-.08a33.91,33.91,0,0,0,12.63-2.28,11.24,11.24,0,0,0,5.61-6.81c.4-1.5-2.3-4.85-4.33-5.79-6-2.76-12.18-5.69-18.6-6.88-37.66-7-75.41-13.51-113.12-20.17-6.07-1.07-12.15-2.11-18.24-3.05-9.73-1.5-19.51,6.2-19.56,16.1q-.27,53.25.05,106.5c0,7.11,7.18,12.26,16.64,12.56,15.16.49,30.32.9,45.47,1.33,26,.75,52,1.4,78,2.25,20.91.68,35.85,18.23,32.29,37.68-2.54,13.86-16.26,25.2-31.85,25.55-26.16.59-52.33.7-78.49,1.12-15,.24-30,.64-45,1.09-11.89.36-17.07,5.61-17.09,17.26q-.06,50.51,0,101c0,12.86,9,20.37,21.66,18.11,30.67-5.46,61.32-11,92-16.46,12.46-2.21,25.06-3.76,37.41-6.46a78.28,78.28,0,0,0,19.44-7.34c5.19-2.73,5.39-7.12.36-10.11a30.67,30.67,0,0,0-14.49-4.1c-21.65-.42-43.33-.15-65-.17q-32.25,0-64.5-.15c-8.23,0-12.86-3.66-12.67-9.56.18-5.68,5-8.89,12.76-8.87q64.5.12,129,.16c8.42,0,16.52,1,23.89,5.83,17.89,11.64,17.45,34.28-1.61,43.94a104.53,104.53,0,0,1-27.77,9.24c-42.06,7.84-84.25,15-126.4,22.4-22.83,4-42.38-12.28-42.69-35.48-.09-6.67,0-13.33-.1-20-.1-7.45-.35-7.58-7.59-7.68-12.15-.17-24.39.38-36.43-.87-17.2-1.8-28.49-15.08-28.58-32.33-.14-30.67,0-61.34,0-92Zm18.55-.65h0q0,45.24,0,90.47c0,10.53,6,16.68,16.69,16.82,10.32.15,20.65.07,31,0,5.88,0,6.45-.64,6.47-6.7.05-17.33-.21-34.66.33-52a36.7,36.7,0,0,1,4-15.7c6.5-12.17,17.65-17,31.1-17.2q59-1,117.92-2.05a51.78,51.78,0,0,0,8.46-.59c5.68-1,10.68-6.3,11.21-11.36.57-5.45-2.38-10.38-8.34-12.86a23.83,23.83,0,0,0-8.25-1.5c-32-1-63.93-1.84-95.9-2.84-10.81-.34-21.7-.36-32.4-1.71-16.7-2.1-27.93-15.54-28-32.42s-.11-34,0-51c0-4.3-1.62-6-5.89-6-10.66.15-21.32,0-32,.13s-16.48,6.19-16.48,16.91Z"/></svg>