<svg id="Component_3_1" data-name="Component 3 – 1" xmlns="http://www.w3.org/2000/svg" width="186.891" height="550.063">
    <defs>
        <style>
            .cls-1{fill:#d3bea1}.cls-2{fill:#fff4e6}.cls-3{fill:#fff}.cls-4{fill:#fff1dc}.cls-5{fill:#3987c3}.cls-8{fill:#e0caaa}.cls-9{fill:#ffc043}
        </style>
    </defs>
    <g id="Group_132" data-name="Group 132" transform="translate(0 447.996)">
        <path id="Path_411" data-name="Path 411" class="cls-1" d="M-259.575 879.762h2.146v34.816h-9.015z" transform="translate(341.767 -872.913)"/>
        <path id="Path_412" data-name="Path 412" class="cls-2" d="M-347.128 879.762h2.146v34.816H-354z" transform="translate(364.488 -872.913)"/>
        <path id="Path_413" data-name="Path 413" class="cls-1" d="m-350.077 899.866 3.966-20.1h2.146v28.86z" transform="translate(363.471 -872.913)"/>
        <path id="Rectangle_448" data-name="Rectangle 448" class="cls-3" transform="translate(0 43.501)" d="M0 0h101.217v58.565H0z"/>
        <g id="Group_128" data-name="Group 128" transform="translate(1.975 56.518)">
            <path id="Rectangle_449" data-name="Rectangle 449" class="cls-2" transform="translate(1.373 36.112)" d="M0 0h10.525v7.416H0z"/>
            <path id="Rectangle_450" data-name="Rectangle 450" class="cls-2" transform="translate(4.118 15.906)" d="M0 0h10.525v7.416H0z"/>
            <path id="Rectangle_451" data-name="Rectangle 451" class="cls-2" transform="translate(35.327 36.434)" d="M0 0h10.525v7.416H0z"/>
            <path id="Rectangle_452" data-name="Rectangle 452" class="cls-2" transform="translate(87.586 36.219)" d="M0 0h10.525v7.416H0z"/>
            <path id="Rectangle_453" data-name="Rectangle 453" class="cls-2" transform="translate(87.769 .86)" d="M0 0h10.525v7.416H0z"/>
            <path id="Rectangle_454" data-name="Rectangle 454" class="cls-2" d="M0 0h10.525v7.416H0z"/>
        </g>
        <path id="Rectangle_455" data-name="Rectangle 455" class="cls-4" transform="translate(8.508 55.644)" d="M0 0h90.362v42.848H0z"/>
        <path id="Rectangle_456" data-name="Rectangle 456" class="cls-2" transform="translate(3.447 38.858)" d="M0 0h94.909v5.529H0z"/>
        <path id="Path_414" data-name="Path 414" class="cls-2" d="M-342 901.622h78.481l-13.311-31.109h-78.481z" transform="translate(364.83 -870.513)"/>
        <path id="Rectangle_457" data-name="Rectangle 457" class="cls-5" transform="translate(9.902 57.003)" d="M0 0h87.575v39.798H0z"/>
        <path id="Rectangle_458" data-name="Rectangle 458" class="cls-4" transform="translate(25.671 56.032)" d="M0 0h1.027v41.836H0z"/>
        <path id="Rectangle_459" data-name="Rectangle 459" class="cls-4" transform="translate(82.074 56.032)" d="M0 0h1.027v41.836H0z"/>
        <path id="Rectangle_460" data-name="Rectangle 460" class="cls-5" transform="translate(46.501 59.065)" d="M0 0h12.762v43.001H0z"/>
        <path id="Rectangle_461" data-name="Rectangle 461" class="cls-4" transform="translate(45.914 56.542)" d="M0 0h1.027v45.525H0z"/>
        <path id="Rectangle_462" data-name="Rectangle 462" class="cls-4" transform="translate(58.97 56.542)" d="M0 0h1.027v45.525H0z"/>
        <path id="Rectangle_463" data-name="Rectangle 463" transform="translate(0 41.402)" style="fill:#ffd345" d="M0 0h105.031v14.096H0z"/>
        <g id="Group_129" data-name="Group 129" transform="translate(11.312 1.199)">
            <path id="Path_415" data-name="Path 415" class="cls-2" d="M-325.187 903.731h-14.288l2.227 5.313h14.288z" transform="translate(349.408 -880.332)"/>
            <path id="Path_416" data-name="Path 416" class="cls-2" d="M-304.338 903.731h-14.288l2.227 5.313h14.288z" transform="translate(343.997 -880.333)"/>
            <path id="Path_417" data-name="Path 417" class="cls-2" d="M-283.49 903.731h-14.288l2.227 5.313h14.288z" transform="translate(338.586 -880.333)"/>
            <path id="Path_418" data-name="Path 418" class="cls-2" d="M-262.641 903.731h-14.288l2.227 5.313h14.288z" transform="translate(333.176 -880.333)"/>
            <path id="Path_419" data-name="Path 419" class="cls-2" d="M-241.793 903.731h-14.287l2.227 5.313h14.288z" transform="translate(327.765 -880.333)"/>
            <path id="Path_420" data-name="Path 420" class="cls-2" d="M-328.581 895.831h-14.288l2.227 5.313h14.288z" transform="translate(350.288 -878.282)"/>
            <path id="Path_421" data-name="Path 421" class="cls-2" d="M-307.732 895.831h-14.288l2.227 5.313h14.288z" transform="translate(344.878 -878.282)"/>
            <path id="Path_422" data-name="Path 422" class="cls-2" d="M-286.884 895.831h-14.288l2.227 5.313h14.288z" transform="translate(339.467 -878.282)"/>
            <path id="Path_423" data-name="Path 423" class="cls-2" d="M-266.035 895.831h-14.288l2.227 5.313h14.288z" transform="translate(334.057 -878.282)"/>
            <path id="Path_424" data-name="Path 424" class="cls-2" d="M-245.186 895.831h-14.288l2.227 5.313h14.288z" transform="translate(328.646 -878.282)"/>
            <path id="Path_425" data-name="Path 425" class="cls-2" d="M-331.921 887.931h-14.288l2.227 5.313h14.288z" transform="translate(351.155 -876.232)"/>
            <path id="Path_426" data-name="Path 426" class="cls-2" d="M-311.072 887.931h-14.288l2.227 5.313h14.288z" transform="translate(345.744 -876.232)"/>
            <path id="Path_427" data-name="Path 427" class="cls-2" d="M-290.224 887.931h-14.288l2.227 5.313H-288z" transform="translate(340.334 -876.232)"/>
            <path id="Path_428" data-name="Path 428" class="cls-2" d="M-269.375 887.931h-14.288l2.227 5.313h14.288z" transform="translate(334.923 -876.232)"/>
            <path id="Path_429" data-name="Path 429" class="cls-2" d="M-248.526 887.931h-14.288l2.227 5.313h14.287z" transform="translate(329.513 -876.232)"/>
            <path id="Path_430" data-name="Path 430" class="cls-2" d="M-335.261 880.032h-14.288l2.227 5.313h14.288z" transform="translate(352.022 -874.182)"/>
            <path id="Path_431" data-name="Path 431" class="cls-2" d="M-314.412 880.032H-328.7l2.227 5.313h14.288z" transform="translate(346.611 -874.182)"/>
            <path id="Path_432" data-name="Path 432" class="cls-2" d="M-293.564 880.032h-14.288l2.227 5.313h14.288z" transform="translate(341.201 -874.182)"/>
            <path id="Path_433" data-name="Path 433" class="cls-2" d="M-272.715 880.032H-287l2.227 5.313h14.288z" transform="translate(335.79 -874.182)"/>
            <path id="Path_434" data-name="Path 434" class="cls-2" d="M-251.866 880.032h-14.288l2.227 5.313h14.288z" transform="translate(330.379 -874.182)"/>
            <path id="Path_435" data-name="Path 435" class="cls-2" d="M-338.6 872.132h-14.288l2.227 5.313h14.288z" transform="translate(352.889 -872.132)"/>
            <path id="Path_436" data-name="Path 436" class="cls-2" d="M-317.752 872.132h-14.288l2.227 5.313h14.288z" transform="translate(347.478 -872.132)"/>
            <path id="Path_437" data-name="Path 437" class="cls-2" d="M-296.9 872.132h-14.288l2.227 5.313h14.288z" transform="translate(342.067 -872.132)"/>
            <path id="Path_438" data-name="Path 438" class="cls-2" d="M-276.055 872.132h-14.288l2.227 5.313h14.288z" transform="translate(336.657 -872.132)"/>
            <path id="Path_439" data-name="Path 439" class="cls-2" d="M-255.206 872.132h-14.288l2.227 5.313h14.288z" transform="translate(331.246 -872.132)"/>
        </g>
        <g id="Group_131" data-name="Group 131" transform="translate(17.108 1.199)">
            <g id="Group_130" data-name="Group 130">
                <path id="Path_440" data-name="Path 440" class="cls-3" d="m-283.49 903.731 2.227 5.313h-8.665l-7.818-5.237-.032-.076z" transform="translate(332.791 -880.332)"/>
                <path id="Path_441" data-name="Path 441" class="cls-3" d="m-262.641 903.731 2.227 5.313H-274.7l-2.227-5.313z" transform="translate(327.38 -880.332)"/>
                <path id="Path_442" data-name="Path 442" class="cls-3" d="M-256.08 903.731h3.868l7.931 5.313h-9.573z" transform="translate(321.969 -880.332)"/>
                <path id="Path_443" data-name="Path 443" class="cls-3" d="m-302.519 900.629-7.162-4.8h5.151z" transform="translate(335.88 -878.282)"/>
                <path id="Path_444" data-name="Path 444" class="cls-3" d="M-301.172 895.831h14.288l2.227 5.313h-14.288z" transform="translate(333.671 -878.282)"/>
                <path id="Path_445" data-name="Path 445" class="cls-3" d="m-278.1 901.144-2.227-5.313h13.087l1.671 1.119 1.758 4.194z" transform="translate(328.261 -878.282)"/>
                <path id="Path_446" data-name="Path 446" class="cls-3" d="m-258.234 898.789 4.662 3.123h-3.353z" transform="translate(322.528 -879.05)"/>
                <path id="Path_447" data-name="Path 447" class="cls-3" d="M-307.837 893.244h-5.707l-7.931-5.313h11.411z" transform="translate(338.94 -876.232)"/>
                <path id="Path_448" data-name="Path 448" class="cls-3" d="M-304.511 887.931h14.288l2.227 5.313h-14.288z" transform="translate(334.538 -876.232)"/>
                <path id="Path_449" data-name="Path 449" class="cls-3" d="M-283.663 887.931h6.827l7.931 5.313h-12.531z" transform="translate(329.128 -876.232)"/>
                <path id="Path_450" data-name="Path 450" class="cls-3" d="m-330.164 882.111-3.1-2.079h2.232z" transform="translate(342.001 -874.182)"/>
                <path id="Path_451" data-name="Path 451" class="cls-3" d="m-314.412 880.032 2.227 5.313h-11.966l-3.228-2.162-1.321-3.15z" transform="translate(340.816 -874.182)"/>
                <path id="Path_452" data-name="Path 452" class="cls-3" d="M-307.851 880.032h14.288l2.227 5.313h-14.288z" transform="translate(335.405 -874.182)"/>
                <path id="Path_453" data-name="Path 453" class="cls-3" d="M-287 880.032h.567l7.931 5.313h-6.271z" transform="translate(329.994 -874.182)"/>
                <path id="Path_454" data-name="Path 454" class="cls-3" d="M-334.342 877.445h-2.788l-7.931-5.313h8.492z" transform="translate(345.062 -872.132)"/>
                <path id="Path_455" data-name="Path 455" class="cls-3" d="M-332.04 872.132h14.288l2.227 5.313h-14.288z" transform="translate(341.682 -872.132)"/>
                <path id="Path_456" data-name="Path 456" class="cls-3" d="m-308.964 877.445-2.227-5.313h9.745l6.316 4.231.454 1.082z" transform="translate(336.272 -872.132)"/>
                <path id="Path_457" data-name="Path 457" class="cls-3" d="m-287.341 879.292.016.011h-.011z" transform="translate(330.082 -873.99)"/>
            </g>
        </g>
    </g>
    <g id="Group_135" data-name="Group 135" transform="translate(87.064)">
        <path id="Rectangle_464" data-name="Rectangle 464" d="M0 0h4.256a1.3 1.3 0 0 1 1.3 1.3v17.192a1.3 1.3 0 0 1-1.3 1.3H0V0z" transform="translate(87.207 76.303)" style="fill:#59494d"/>
        <path id="Path_458" data-name="Path 458" class="cls-2" d="M-127.554 459.772c0 15.8 8.723 15.8 8.723 0 0-26.35-4.055-73.377-4.055-73.377h-.613s-4.055 46.905-4.055 73.377z" transform="translate(218.658 -296.88)"/>
        <path id="Path_459" data-name="Path 459" class="cls-8" d="M-120.817 408.81a2.749 2.749 0 0 1 .4.039c-.9-12.9-1.728-22.454-1.728-22.454h-.613s-.949 10.981-1.928 25.307c1.196-1.859 2.501-2.892 3.869-2.892z" transform="translate(217.913 -296.88)"/>
        <path id="Path_460" data-name="Path 460" class="cls-3" d="M-175.776 397.18h-8.518l-33.362 445.213h41.88z" transform="translate(242.042 -299.679)"/>
        <path id="Path_461" data-name="Path 461" class="cls-3" d="M-175.909 986.386h-48.623l-5.261 14.374h59.146z" transform="translate(245.192 -452.588)"/>
        <g id="Group_133" data-name="Group 133" transform="translate(44.723 203.406)">
            <path id="Path_462" data-name="Path 462" class="cls-9" d="M-167.847 540.2H-184.3l-2.8 37.378h19.255z" transform="translate(189.389 -540.201)"/>
            <path id="Path_463" data-name="Path 463" class="cls-9" d="M-168.648 608.346h-20.235l-1.307 17.443h21.542z" transform="translate(190.191 -557.886)"/>
        </g>
        <path id="Path_464" data-name="Path 464" class="cls-8" d="M-165.923 485.98v-88.8h-8.519l-5.249 70.045c1.933-.925 11.251 5.694 13.768 18.755z" transform="translate(232.189 -299.678)"/>
        <path id="Path_465" data-name="Path 465" class="cls-2" d="M-118.831 277.358c0-15.8-8.723-15.8-8.723 0 0 26.35 4.055 73.377 4.055 73.377h.613s4.055-46.901 4.055-73.377z" transform="translate(218.658 -265.507)"/>
        <path id="Path_466" data-name="Path 466" class="cls-8" d="M-121.6 350.912a5.226 5.226 0 0 1-2.835-.9c.91 13 1.742 22.657 1.742 22.657h.613s.8-9.287 1.693-21.92a4.7 4.7 0 0 1-1.213.163z" transform="translate(217.848 -287.437)"/>
        <path id="Rectangle_465" data-name="Rectangle 465" class="cls-2" d="M0 0h10.074a1.59 1.59 0 0 1 1.59 1.59v4.034a1.59 1.59 0 0 1-1.59 1.59H0V0z" transform="translate(86.717 83.688)"/>
        <path id="Path_467" data-name="Path 467" class="cls-2" d="M-159.266 366a5.3 5.3 0 0 0-5.3-5.3h-50.414c-18.648 0-35.608 9.977-35.608 9.977s15.578 22.255 35.608 22.255h50.419a5.3 5.3 0 0 0 5.3-5.3z" transform="translate(250.588 -290.211)"/>
        <path id="Path_468" data-name="Path 468" class="cls-3" d="M-209.329 362.976a64.459 64.459 0 0 0-21.193 4c7.179 1.424 18.211 2.336 30.592 2.336 20.77 0 37.753-2.565 39.078-5.808a4.817 4.817 0 0 0-2.164-.529z" transform="translate(245.381 -290.802)"/>
        <path id="Path_469" data-name="Path 469" class="cls-8" d="M-178.851 383.882c-26.99 0-60.2 1.98-71.327-9.146 2.225 3.011 16.875 21.838 35.3 21.838h50.419a5.3 5.3 0 0 0 5.3-5.3v-12.659c-1.883 1.885-12.973 5.267-19.692 5.267z" transform="translate(250.482 -293.854)"/>
        <path id="Path_470" data-name="Path 470" class="cls-2" d="M-221.857 396.943q.741.369 1.5.708v-5.96h28.889v8.894h1.5v-10.394h-31.89z" transform="translate(243.132 -297.865)"/>
        <g id="Group_134" data-name="Group 134" transform="translate(51.502 70.497)">
            <path id="Path_471" data-name="Path 471" class="cls-1" d="M-140.961 376.141h-40.075v-15.429h1.5v13.928h38.575z" transform="translate(181.036 -360.712)"/>
        </g>
    </g>
</svg>
